<?xml version="1.0" standalone="no"?>
<!DOCTYPE svg PUBLIC "-//W3C//DTD SVG 20010904//EN"
 "http://www.w3.org/TR/2001/REC-SVG-20010904/DTD/svg10.dtd">
<svg version="1.0" xmlns="http://www.w3.org/2000/svg"
 width="151.000000pt" height="41.000000pt" viewBox="0 0 151.000000 41.000000"
 preserveAspectRatio="xMidYMid meet">

<g transform="translate(0.000000,41.000000) scale(0.100000,-0.100000)"
fill="#000000" stroke="none">
<path d="M297 333 c-12 -11 -8 -23 7 -23 7 0 19 7 26 15 10 12 9 15 -7 15 -11
0 -23 -3 -26 -7z"/>
<path d="M140 205 c0 -70 -3 -87 -16 -92 -10 -4 -22 1 -29 10 -15 20 -45 22
-45 4 0 -21 34 -47 61 -47 14 0 35 7 47 16 20 14 22 23 22 105 0 82 -1 89 -20
89 -18 0 -20 -7 -20 -85z"/>
<path d="M220 210 c0 -73 3 -83 25 -105 15 -16 36 -25 55 -25 19 0 40 9 55 25
22 22 25 32 25 105 0 73 -2 80 -20 80 -18 0 -20 -7 -20 -74 0 -72 -13 -106
-40 -106 -27 0 -40 34 -40 106 0 67 -2 74 -20 74 -18 0 -20 -7 -20 -80z"/>
<path d="M420 185 l0 -105 65 0 c51 0 65 3 65 15 0 11 -12 15 -45 15 l-45 0 0
90 c0 83 -1 90 -20 90 -19 0 -20 -7 -20 -105z"/>
<path d="M580 185 c0 -98 1 -105 20 -105 19 0 20 7 20 105 0 98 -1 105 -20
105 -19 0 -20 -7 -20 -105z"/>
<path d="M685 265 c-21 -20 -25 -34 -25 -80 0 -46 4 -60 25 -80 34 -35 78 -33
116 4 24 24 29 38 29 76 0 89 -88 138 -145 80z m85 -25 c27 -27 27 -83 0 -110
-24 -24 -34 -25 -54 -4 -32 32 -13 134 25 134 5 0 18 -9 29 -20z"/>
<path d="M974 278 c-56 -27 -59 -143 -5 -185 27 -21 79 -15 106 12 14 13 25
29 25 35 0 17 -35 11 -53 -10 -22 -26 -42 -25 -61 2 -30 42 -10 128 30 128 8
0 22 -9 31 -20 23 -27 53 -27 46 0 -11 43 -71 62 -119 38z"/>
<path d="M1203 278 c2 -7 13 -55 23 -105 16 -83 21 -93 40 -93 18 0 24 9 34
53 20 83 26 85 40 13 11 -58 15 -66 35 -66 20 0 25 8 39 73 31 140 31 137 8
137 -17 0 -22 -11 -33 -72 l-13 -73 -12 45 c-7 25 -15 57 -18 73 -4 18 -13 27
-25 27 -15 0 -21 -13 -32 -65 -7 -35 -16 -62 -20 -60 -3 3 -10 26 -14 51 -9
64 -14 74 -37 74 -12 0 -18 -5 -15 -12z"/>
<path d="M1132 103 c5 -26 38 -29 38 -4 0 15 -6 21 -21 21 -14 0 -19 -5 -17
-17z"/>
</g>
</svg>
