<?xml version="1.0" standalone="no"?>
<!DOCTYPE svg PUBLIC "-//W3C//DTD SVG 20010904//EN"
 "http://www.w3.org/TR/2001/REC-SVG-20010904/DTD/svg10.dtd">
<svg version="1.0" xmlns="http://www.w3.org/2000/svg"
 width="87.000000pt" height="26.000000pt" viewBox="0 0 87.000000 26.000000"
 preserveAspectRatio="xMidYMid meet">

<g transform="translate(0.000000,26.000000) scale(0.100000,-0.100000)"
fill="#000000" stroke="none">
<path d="M260 130 c0 -47 4 -80 10 -80 6 0 10 33 10 80 0 47 -4 80 -10 80 -6
0 -10 -33 -10 -80z"/>
<path d="M88 138 c-3 -57 -5 -63 -25 -66 -13 -2 -23 1 -23 7 0 6 -4 11 -10 11
-22 0 -8 -30 17 -36 44 -12 58 6 61 80 2 39 -1 66 -7 66 -6 0 -11 -28 -13 -62z"/>
<path d="M310 190 c0 -5 5 -10 10 -10 6 0 10 5 10 10 0 6 -4 10 -10 10 -5 0
-10 -4 -10 -10z"/>
<path d="M504 186 c-27 -20 -27 -102 0 -122 29 -20 63 -17 80 8 18 26 10 41
-8 15 -26 -35 -76 -15 -76 31 0 55 47 83 76 45 18 -26 26 -11 8 15 -17 25 -51
28 -80 8z"/>
<path d="M686 138 c25 -108 35 -116 54 -38 7 28 15 50 19 50 4 0 13 -22 20
-50 7 -27 17 -50 22 -50 4 0 13 19 19 43 6 23 15 57 20 75 6 24 6 32 -3 29 -7
-2 -16 -25 -21 -50 -4 -26 -11 -47 -15 -47 -4 0 -13 23 -20 50 -7 28 -17 50
-21 50 -5 0 -16 -26 -26 -57 -11 -38 -19 -51 -21 -38 -12 58 -25 95 -32 95 -5
0 -3 -28 5 -62z"/>
<path d="M140 116 c0 -51 13 -65 58 -64 32 1 32 1 32 55 0 63 -17 72 -22 11
-2 -36 -7 -44 -25 -46 -21 -3 -23 1 -23 42 0 25 -4 46 -10 46 -5 0 -10 -20
-10 -44z"/>
<path d="M310 105 c0 -30 5 -55 10 -55 6 0 10 25 10 55 0 30 -4 55 -10 55 -5
0 -10 -25 -10 -55z"/>
<path d="M376 144 c-32 -32 -10 -94 34 -94 26 0 50 27 50 55 0 28 -24 55 -50
55 -10 0 -26 -7 -34 -16z m59 -39 c0 -25 -4 -30 -25 -30 -16 0 -26 6 -28 18
-6 30 6 49 30 45 18 -2 23 -9 23 -33z"/>
<path d="M630 60 c0 -5 5 -10 10 -10 6 0 10 5 10 10 0 6 -4 10 -10 10 -5 0
-10 -4 -10 -10z"/>
</g>
</svg>
